<!-- source: https://commons.wikimedia.org/wiki/File:Ranjana_a.svg -->
<svg xmlns="http://www.w3.org/2000/svg" width="64" height="64" viewBox="0 0 64 64">
  <style>
    @media (prefers-color-scheme: dark) { path { fill: white; } }
  </style>
  <path fill="currentColor" d="M57.82 63.02c-.63-.29-3.34-1.93-5.33-3.23-.95-.62-2.23-1.4-2.84-1.73-1.53-.83-7.94-4.81-8.82-5.48-.4-.3-1.95-1.26-3.46-2.14-1.5-.88-3.15-1.89-3.66-2.24-.51-.35-2.62-1.67-4.68-2.93-3.74-2.3-4.24-2.84-3.32-3.6.58-.48 1.53-.2 3.21.95 1.62 1.11 3.98 1.77 5.35 1.49 1.34-.27 3.85-1.2 4.77-1.78 2.78-1.72 3.23-2.8 3.23-7.7v-3.88l-1.51-.97c-2.56-1.63-3.36-2.05-3.53-1.88-.09.09-.24 1.9-.34 4.01-.19 4.24-.19 4.25-2.44 5.45-1.25.66-5.6 1.22-6.77.87-1.97-.59-5.08-2.4-8.52-4.94-.98-.73-3.05-2.13-4.59-3.12S11.76 28.21 11.76 28.02c0-.19.18-.6.4-.9.43-.59 1.09-.43 2.33.55.32.25 1.81 1.27 3.32 2.26 2.58 1.7 2.84 1.8 4.59 1.85 1.89.06 3.93-.63 4.19-1.42.2-.6.41-8.42.24-9.07-.14-.53-2.35-2.08-2.96-2.08-.11 0-.08.62.07 1.37.52 2.6-1.28 4.89-3.54 4.5-1.34-.23-4.85-1.98-5.8-2.89-2.36-2.25-2.06-6.08.57-7.4 2.37-1.2 4.3-1.16 8.53 1.52 2.78 1.76 2.91 1.82 3.11 1.27.23-.6.22-6.67 0-7.02-.12-.18-1.15-.47-2.3-.65C19.26 9.51 15.66 7.37 12.37 3.14c-.65-.85-1.19-1.73-1.19-1.95 0-.36 2.7-.39 19.78-.23 10.89.1 20.12.2 20.52.23l.72.04-.1 27.96-.1 27.95 3.53 2.2c1.95 1.2 3.65 2.19 3.78 2.19.43 0 .25.76-.29 1.25-.58.52-.58.52-1.2.24zm-15.54-43.79V10.62l-2.23-.1c-1.23-.06-2.39-.06-2.59 0-.27.08-.36 1.79-.36 7.25V24.91l2.2 1.47c1.21.8 2.38 1.46 2.59 1.46.32 0 .39-1.57.39-2.61z"/>
</svg>

